<svg width="32" height="32" viewBox="0 0 32 32" fill="none" xmlns="http://www.w3.org/2000/svg">
<rect width="32" height="32" rx="5" fill="#8F00FF"/>
<path fill-rule="evenodd" clip-rule="evenodd" d="M20.9989 16.4394C21.236 16.3034 21.5323 16.2197 21.8878 16.1883V15.8117C21.5323 15.7803 21.236 15.7019 20.9989 15.5764C20.7619 15.4404 20.5709 15.2782 20.426 15.0899C20.2943 14.8912 20.1956 14.6715 20.1297 14.4309C20.077 14.1903 20.0507 13.9445 20.0507 13.6934V11.9987C20.0507 10.9317 19.6819 10.1105 18.9445 9.53517C18.207 8.95982 17.1271 8.58846 15.7047 8.42108L15.6015 8.65675V8.43681H10.663V8.8134C10.9527 8.83432 11.1832 8.90755 11.3544 9.03308C11.5387 9.14815 11.5782 9.34691 11.4729 9.62936L6.37627 22.3551C6.27092 22.6271 6.11947 22.8206 5.92192 22.9357C5.72438 23.0612 5.43465 23.1344 5.05273 23.1553V23.5319H10.4852V23.1553C9.48429 23.103 9.0892 22.8154 9.29992 22.2923L11.1379 17.6842H17.1791C17.1444 17.8508 17.1271 18.0321 17.1271 18.2282V20.5819C17.1271 20.8748 17.1073 21.1573 17.0678 21.4293C17.0415 21.6908 16.969 21.9366 16.8505 22.1668C16.7451 22.3864 16.5871 22.5852 16.3764 22.763C16.1657 22.9409 15.8891 23.0925 15.5467 23.2181L15.7047 23.579C17.1271 23.4116 18.207 23.035 18.9445 22.4492C19.6819 21.8738 20.0507 21.0527 20.0507 19.9856V18.3067C20.0507 18.0556 20.077 17.815 20.1297 17.5849C20.1956 17.3443 20.2943 17.1298 20.426 16.9415C20.5709 16.7428 20.7619 16.5754 20.9989 16.4394ZM17.6024 15.1579C17.2855 14.8264 17.1271 14.3644 17.1271 13.7718V11.4181C17.1271 11.1252 17.1073 10.848 17.0678 10.5865C17.0415 10.3145 16.969 10.0687 16.8505 9.849C16.7451 9.61886 16.5871 9.41487 16.3764 9.23703C16.177 9.06879 15.9188 8.92396 15.6015 8.80253V8.8134C14.9694 8.86571 14.5546 9.13246 14.357 9.61366L12.1456 15.1579H17.6024Z" fill="white"/>
<path d="M24.96 9.26318L26.981 11.2034V11.4055L24.96 13.3457H24.7579L22.7368 11.4055V11.2034L24.7579 9.26318H24.96ZM24.8993 16.6602L27.0214 18.1962V18.3983C26.9137 18.5466 26.8126 18.7352 26.7183 18.9642C26.6374 19.1798 26.5499 19.4089 26.4556 19.6514L26.3949 19.8131C26.1659 20.3655 25.8694 20.9381 25.5057 21.531C25.1419 22.1373 24.5827 22.8042 23.8282 23.5318L23.424 23.2084C23.7339 22.7503 23.9562 22.2922 24.0909 21.8341C24.2257 21.376 24.293 20.9381 24.293 20.5204C24.293 20.1297 24.1718 19.8198 23.9292 19.5908C23.6867 19.3617 23.2892 19.1866 22.7368 19.0653V18.8632L24.6972 16.6602H24.8993Z" fill="#FFB800"/>
</svg>
