<svg width="32" height="32" viewBox="0 0 32 32" fill="none" xmlns="http://www.w3.org/2000/svg">
<circle cx="16" cy="16" r="16" fill="#8F00FF"/>
<path fill-rule="evenodd" clip-rule="evenodd" d="M21.1205 16.2245C21.3445 16.096 21.6244 16.017 21.9604 15.9873V15.6315C21.6244 15.6019 21.3445 15.5277 21.1205 15.4091C20.8965 15.2806 20.7161 15.1274 20.5792 14.9495C20.4548 14.7617 20.3615 14.5542 20.2992 14.3268C20.2495 14.0995 20.2246 13.8673 20.2246 13.63V12.0289C20.2246 11.0207 19.8762 10.2448 19.1794 9.70124C18.4826 9.15763 17.4622 8.80676 16.1184 8.64862L16.0208 8.87144V8.66351H11.3547V9.01932C11.6284 9.03909 11.8462 9.10828 12.0079 9.22688C12.1821 9.3356 12.2195 9.52339 12.1199 9.79026L7.30448 21.8139C7.20493 22.0708 7.06184 22.2537 6.87519 22.3624C6.68855 22.481 6.4148 22.5502 6.05396 22.57V22.9258H11.1867V22.57C10.241 22.5206 9.86774 22.2488 10.0668 21.7546L11.8035 17.4007H17.5114C17.4786 17.558 17.4622 17.7293 17.4622 17.9147V20.1385C17.4622 20.4153 17.4436 20.6821 17.4062 20.9391C17.3814 21.1862 17.3129 21.4185 17.2009 21.6359C17.1014 21.8435 16.9521 22.0313 16.753 22.1993C16.5539 22.3673 16.2926 22.5106 15.9691 22.6292L16.1184 22.9702C17.4622 22.8121 18.4826 22.4563 19.1794 21.9028C19.8762 21.3592 20.2246 20.5833 20.2246 19.5751V17.9888C20.2246 17.7516 20.2495 17.5243 20.2992 17.3068C20.3615 17.0795 20.4548 16.8769 20.5792 16.699C20.7161 16.5112 20.8965 16.353 21.1205 16.2245ZM17.9114 15.0138C17.6119 14.7006 17.4622 14.264 17.4622 13.7042V11.4803C17.4622 11.2036 17.4436 10.9417 17.4062 10.6946C17.3814 10.4376 17.3129 10.2053 17.2009 9.99776C17.1014 9.78031 16.9521 9.58758 16.753 9.41955C16.5646 9.26058 16.3206 9.12373 16.0208 9.009V9.01932C15.4236 9.06874 15.0316 9.32078 14.845 9.77543L12.7555 15.0138H17.9114Z" fill="white"/>
<path d="M24.7303 9.13239L26.7701 11.014V11.21L24.7303 13.0917H24.5263L22.4866 11.21V11.014L24.5263 9.13239H24.7303ZM24.6691 16.3061L26.8109 17.7957V17.9917C26.7021 18.1355 26.6001 18.3184 26.5049 18.5405C26.4233 18.7496 26.335 18.9718 26.2398 19.207L26.1786 19.3638C25.9474 19.8995 25.6482 20.4548 25.2811 21.0298C24.9139 21.6178 24.3496 22.2646 23.588 22.9702L23.1801 22.6566C23.4929 22.2123 23.7172 21.7681 23.8532 21.3238C23.9892 20.8795 24.0572 20.4548 24.0572 20.0498C24.0572 19.6708 23.9348 19.3703 23.69 19.1482C23.4453 18.926 23.0441 18.7562 22.4866 18.6385V18.4425L24.4652 16.3061H24.6691Z" fill="#FFB800"/>
</svg>
