<svg width="194" height="42" viewBox="0 0 194 42" fill="none" xmlns="http://www.w3.org/2000/svg">
<path fill-rule="evenodd" clip-rule="evenodd" d="M34 17.4927C33.2819 17.5548 32.6835 17.7204 32.2047 17.9896C31.726 18.2587 31.3403 18.59 31.0477 18.9834C30.7818 19.356 30.5823 19.7805 30.4493 20.2566C30.3429 20.7121 30.2897 21.1883 30.2897 21.6852V25.0082C30.2897 27.12 29.545 28.7453 28.0556 29.884C26.5662 31.0434 24.3852 31.7887 21.5127 32.12L21.1936 31.4057C21.8851 31.1573 22.4436 30.8571 22.8692 30.5051C23.2947 30.1531 23.6139 29.7598 23.8267 29.325C24.0661 28.8695 24.2123 28.3829 24.2655 27.8653C24.3453 27.327 24.3852 26.768 24.3852 26.1883V21.5299C24.3852 21.1418 24.4203 20.7829 24.4904 20.4533H12.2895L8.5775 29.5735C8.15195 30.6087 8.94986 31.178 10.9712 31.2816V32.0269H0V31.2816C0.77131 31.2402 1.35644 31.0952 1.7554 30.8468C2.15435 30.619 2.46021 30.236 2.67299 29.6977L12.966 4.51138C13.1788 3.95237 13.099 3.559 12.7266 3.33125C12.3809 3.08281 11.9154 2.93788 11.3303 2.89647V2.15113H21.3041V2.58689L21.5127 2.12C24.3852 2.45126 26.5662 3.18625 28.0556 4.32497C29.545 5.46369 30.2897 7.08894 30.2897 9.20075V12.5548C30.2897 13.0517 30.3429 13.5382 30.4493 14.0144C30.5823 14.4906 30.7818 14.9254 31.0477 15.3188C31.3403 15.6914 31.726 16.0123 32.2047 16.2815C32.6835 16.5299 33.2819 16.6852 34 16.7473V17.4927ZM14.3246 15.4533H25.3453C24.7052 14.7973 24.3852 13.8828 24.3852 12.7101V8.05168C24.3852 7.47197 24.3453 6.92331 24.2655 6.40571C24.2123 5.86741 24.0661 5.38087 23.8267 4.94609C23.6139 4.4906 23.2947 4.08687 22.8692 3.73491C22.4666 3.40189 21.9449 3.11521 21.3041 2.87487V2.89647C20.0275 2.99999 19.1897 3.52794 18.7907 4.48032L14.3246 15.4533Z" fill="#8F00FF"/>
<path d="M45.96 31.32V32.12H35.4V31.32C36.12 31.1867 36.6667 30.9867 37.04 30.72C37.4133 30.4267 37.6 29.84 37.6 28.96V4.24C37.6 3.46667 37.3867 2.97333 36.96 2.76C36.56 2.52 36.1067 2.37333 35.6 2.32V1.52H43.76C43.7067 1.97333 43.6533 2.49333 43.6 3.08C43.5733 3.66667 43.56 4.28 43.56 4.92V28.96C43.56 29.84 43.7733 30.4267 44.2 30.72C44.6533 30.9867 45.24 31.1867 45.96 31.32Z" fill="#8F00FF"/>
<path d="M57.7687 25.72C56.9688 25.72 56.1821 25.64 55.4087 25.48C54.7687 25.56 54.3154 25.7333 54.0488 26C53.8088 26.2667 53.6888 26.5333 53.6888 26.8C53.6888 27.6 54.3421 28 55.6488 28H62.4087C63.3687 28 64.2621 28.0933 65.0888 28.28C65.9154 28.4667 66.6354 28.7733 67.2487 29.2C67.8887 29.6 68.3821 30.1467 68.7288 30.84C69.0754 31.5067 69.2487 32.3333 69.2487 33.32C69.2487 34.4933 68.9421 35.56 68.3288 36.52C67.7421 37.5067 66.9021 38.3467 65.8088 39.04C64.7421 39.76 63.4621 40.32 61.9688 40.72C60.5021 41.12 58.8754 41.32 57.0888 41.32H56.6888C55.3021 41.32 54.0487 41.1867 52.9287 40.92C51.8088 40.68 50.8488 40.3333 50.0488 39.88C49.2488 39.4267 48.6354 38.8933 48.2088 38.28C47.7821 37.6667 47.5687 37 47.5687 36.28C47.5687 35.7467 47.6887 35.24 47.9287 34.76C48.1688 34.3067 48.4754 33.8933 48.8488 33.52C49.2488 33.1467 49.7021 32.8133 50.2088 32.52C50.7154 32.2533 51.2354 32.0533 51.7687 31.92C50.8887 31.5733 50.2221 31.1067 49.7687 30.52C49.3154 29.9067 49.0887 29.2533 49.0887 28.56C49.0887 27.6267 49.4487 26.7867 50.1688 26.04C50.9154 25.2933 51.8354 24.8133 52.9287 24.6C51.7021 23.96 50.7021 23.0933 49.9287 22C49.1554 20.88 48.7687 19.52 48.7687 17.92C48.7687 16.64 49.0221 15.5067 49.5288 14.52C50.0354 13.5333 50.7021 12.72 51.5288 12.08C52.3554 11.4133 53.3154 10.9067 54.4087 10.56C55.5021 10.2133 56.6221 10.04 57.7687 10.04C58.4621 10.04 59.1554 10.1067 59.8488 10.24C60.5421 10.3467 61.1954 10.5333 61.8088 10.8C62.3154 9.73333 62.9554 8.8 63.7288 8C64.5021 7.2 65.4888 6.54667 66.6888 6.04L68.2887 11.28L67.6087 11.48C67.2354 11.08 66.6754 10.8933 65.9287 10.92C65.1821 10.92 64.3154 11.1333 63.3288 11.56C64.3421 12.2267 65.1688 13.0933 65.8088 14.16C66.4488 15.2 66.7688 16.44 66.7688 17.88C66.7688 19.16 66.5154 20.2933 66.0088 21.28C65.5021 22.2667 64.8221 23.0933 63.9688 23.76C63.1421 24.4 62.1821 24.8933 61.0887 25.24C60.0221 25.56 58.9154 25.72 57.7687 25.72ZM57.7687 13.36C56.5954 13.36 55.7288 13.76 55.1688 14.56C54.6354 15.3333 54.3688 16.4533 54.3688 17.92C54.3688 19.3867 54.6354 20.52 55.1688 21.32C55.7288 22.0933 56.5954 22.48 57.7687 22.48C58.9688 22.48 59.8354 22.0933 60.3688 21.32C60.9021 20.52 61.1688 19.3867 61.1688 17.92C61.1688 16.4533 60.9021 15.3333 60.3688 14.56C59.8354 13.76 58.9688 13.36 57.7687 13.36ZM54.5288 32.4C54.0488 32.7467 53.7021 33.1333 53.4888 33.56C53.2754 33.9867 53.1688 34.4133 53.1688 34.84C53.1688 35.6933 53.5688 36.4 54.3688 36.96C55.1688 37.5467 56.2487 37.84 57.6087 37.84H58.0088C59.8488 37.84 61.2887 37.52 62.3288 36.88C63.3954 36.2667 63.9287 35.4533 63.9287 34.44C63.9287 33.6667 63.5688 33.1333 62.8488 32.84C62.1554 32.5467 61.1821 32.4 59.9287 32.4H54.5288Z" fill="#8F00FF"/>
<path d="M81.4381 32.88C79.9715 32.88 78.6381 32.6267 77.4381 32.12C76.2648 31.64 75.2515 30.9733 74.3981 30.12C73.5448 29.2667 72.8515 28.28 72.3181 27.16C71.7848 26.0133 71.4248 24.7867 71.2381 23.48C71.0515 22.2533 70.5981 21.64 69.8781 21.64V20.84C70.2248 20.84 70.5048 20.7067 70.7181 20.44C70.9581 20.1467 71.1315 19.68 71.2381 19.04C71.4248 17.7333 71.7848 16.5067 72.3181 15.36C72.8515 14.2133 73.5448 13.2133 74.3981 12.36C75.2515 11.5067 76.2648 10.84 77.4381 10.36C78.6115 9.85333 79.9448 9.6 81.4381 9.6C82.9315 9.6 84.2648 9.85333 85.4381 10.36C86.6115 10.84 87.6248 11.5067 88.4781 12.36C89.3315 13.2133 90.0248 14.2133 90.5581 15.36C91.0915 16.5067 91.4515 17.7333 91.6381 19.04C91.7448 19.68 91.9048 20.1467 92.1181 20.44C92.3581 20.7067 92.6515 20.84 92.9981 20.84V21.64C92.2781 21.64 91.8248 22.2533 91.6381 23.48C91.4515 24.7867 91.0915 26.0133 90.5581 27.16C90.0248 28.28 89.3315 29.2667 88.4781 30.12C87.6248 30.9733 86.6115 31.64 85.4381 32.12C84.2648 32.6267 82.9315 32.88 81.4381 32.88ZM81.4381 13.2C80.1048 13.2 79.0381 13.8533 78.2381 15.16C77.4648 16.4667 77.0781 18.4933 77.0781 21.24C77.0781 23.9867 77.4648 26.0133 78.2381 27.32C79.0381 28.6267 80.1048 29.28 81.4381 29.28C82.7715 29.28 83.8248 28.6267 84.5981 27.32C85.3981 26.0133 85.7981 23.9867 85.7981 21.24C85.7981 18.4933 85.3981 16.4667 84.5981 15.16C83.8248 13.8533 82.7715 13.2 81.4381 13.2Z" fill="#8F00FF"/>
<path d="M102.254 10.52C102.121 11.2133 102.001 11.9867 101.894 12.84C101.787 13.6933 101.734 14.5067 101.734 15.28C102.214 13.7867 103.027 12.5333 104.174 11.52C105.347 10.5067 106.881 10 108.774 10C109.787 10 110.734 10.1733 111.614 10.52C112.494 10.84 113.254 11.3333 113.894 12C114.534 12.6667 115.041 13.5067 115.414 14.52C115.787 15.5067 115.974 16.6667 115.974 18V29.36C115.974 30.0267 116.147 30.5067 116.494 30.8C116.841 31.0667 117.401 31.24 118.174 31.32V32.12H108.134V31.32C108.907 31.2667 109.427 31.0933 109.694 30.8C109.987 30.5067 110.134 30.0267 110.134 29.36V18.16C110.134 16.8 109.841 15.76 109.254 15.04C108.694 14.32 107.881 13.96 106.814 13.96C106.174 13.96 105.587 14.0933 105.054 14.36C104.521 14.6267 104.054 14.9867 103.654 15.44C103.281 15.8667 102.974 16.3733 102.734 16.96C102.521 17.52 102.414 18.0933 102.414 18.68V29.36C102.414 30.0267 102.587 30.5067 102.934 30.8C103.281 31.0667 103.841 31.24 104.614 31.32V32.12H94.6141V31.32C95.3074 31.2667 95.8141 31.0933 96.1341 30.8C96.4541 30.5067 96.6141 30.0267 96.6141 29.36V13.24C96.6141 12.4667 96.4274 11.9733 96.0541 11.76C95.6807 11.52 95.2674 11.3733 94.8141 11.32V10.52H102.254Z" fill="#8F00FF"/>
<path d="M126.311 0L129.951 3.44V3.88L126.311 7.24H125.871L122.191 3.88V3.44L125.871 0H126.311ZM129.311 10.52C129.231 11.0533 129.177 11.64 129.151 12.28C129.151 12.92 129.151 13.5867 129.151 14.28V28.56C129.151 29.5733 129.364 30.2533 129.791 30.6C130.244 30.9467 130.897 31.1867 131.751 31.32V32.12H120.791V31.32C121.644 31.1867 122.257 30.9467 122.631 30.6C123.004 30.2533 123.191 29.5733 123.191 28.56V13.24C123.191 12.4667 123.004 11.9733 122.631 11.76C122.257 11.52 121.844 11.3733 121.391 11.32V10.52H129.311Z" fill="#8F00FF"/>
<path d="M145.11 32.88C143.643 32.88 142.31 32.6267 141.11 32.12C139.937 31.64 138.923 30.9733 138.07 30.12C137.217 29.2667 136.523 28.28 135.99 27.16C135.457 26.0133 135.097 24.7867 134.91 23.48C134.723 22.2533 134.27 21.64 133.55 21.64V20.84C133.897 20.84 134.177 20.7067 134.39 20.44C134.63 20.1467 134.803 19.68 134.91 19.04C135.097 17.7333 135.457 16.5067 135.99 15.36C136.523 14.2133 137.217 13.2133 138.07 12.36C138.923 11.5067 139.937 10.84 141.11 10.36C142.283 9.85333 143.617 9.6 145.11 9.6C146.603 9.6 147.937 9.85333 149.11 10.36C150.283 10.84 151.297 11.5067 152.15 12.36C153.003 13.2133 153.697 14.2133 154.23 15.36C154.763 16.5067 155.123 17.7333 155.31 19.04C155.417 19.68 155.577 20.1467 155.79 20.44C156.03 20.7067 156.323 20.84 156.67 20.84V21.64C155.95 21.64 155.497 22.2533 155.31 23.48C155.123 24.7867 154.763 26.0133 154.23 27.16C153.697 28.28 153.003 29.2667 152.15 30.12C151.297 30.9733 150.283 31.64 149.11 32.12C147.937 32.6267 146.603 32.88 145.11 32.88ZM145.11 13.2C143.777 13.2 142.71 13.8533 141.91 15.16C141.137 16.4667 140.75 18.4933 140.75 21.24C140.75 23.9867 141.137 26.0133 141.91 27.32C142.71 28.6267 143.777 29.28 145.11 29.28C146.443 29.28 147.497 28.6267 148.27 27.32C149.07 26.0133 149.47 23.9867 149.47 21.24C149.47 18.4933 149.07 16.4667 148.27 15.16C147.497 13.8533 146.443 13.2 145.11 13.2Z" fill="#8F00FF"/>
<path d="M165.926 10.52C165.793 11.2133 165.673 11.9867 165.566 12.84C165.459 13.6933 165.406 14.5067 165.406 15.28C165.886 13.7867 166.699 12.5333 167.846 11.52C169.019 10.5067 170.553 10 172.446 10C173.459 10 174.406 10.1733 175.286 10.52C176.166 10.84 176.926 11.3333 177.566 12C178.206 12.6667 178.713 13.5067 179.086 14.52C179.459 15.5067 179.646 16.6667 179.646 18V29.36C179.646 30.0267 179.819 30.5067 180.166 30.8C180.513 31.0667 181.073 31.24 181.846 31.32V32.12H171.806V31.32C172.579 31.2667 173.099 31.0933 173.366 30.8C173.659 30.5067 173.806 30.0267 173.806 29.36V18.16C173.806 16.8 173.513 15.76 172.926 15.04C172.366 14.32 171.553 13.96 170.486 13.96C169.846 13.96 169.259 14.0933 168.726 14.36C168.193 14.6267 167.726 14.9867 167.326 15.44C166.953 15.8667 166.646 16.3733 166.406 16.96C166.193 17.52 166.086 18.0933 166.086 18.68V29.36C166.086 30.0267 166.259 30.5067 166.606 30.8C166.953 31.0667 167.513 31.24 168.286 31.32V32.12H158.286V31.32C158.979 31.2667 159.486 31.0933 159.806 30.8C160.126 30.5067 160.286 30.0267 160.286 29.36V13.24C160.286 12.4667 160.099 11.9733 159.726 11.76C159.353 11.52 158.939 11.3733 158.486 11.32V10.52H165.926Z" fill="#8F00FF"/>
<path d="M189.4 10.12L193.4 13.96V14.36L189.4 18.2H189L185 14.36V13.96L189 10.12H189.4ZM189.28 24.56L193.48 27.6V28C193.24 28.32 193.027 28.7333 192.84 29.24C192.653 29.7467 192.453 30.2667 192.24 30.8C191.787 31.8933 191.2 33.04 190.48 34.24C189.76 35.4133 188.653 36.72 187.16 38.16L186.36 37.52C186.973 36.6133 187.413 35.7067 187.68 34.8C187.947 33.8933 188.08 33.0267 188.08 32.2C188.08 31.4267 187.84 30.8133 187.36 30.36C186.88 29.9067 186.093 29.56 185 29.32V28.92L188.88 24.56H189.28Z" fill="#FFB800"/>
</svg>
