<svg width="81" height="78" viewBox="0 0 81 78" fill="none" xmlns="http://www.w3.org/2000/svg">
<path d="M36.0163 3.08493C37.8504 -0.631294 43.1496 -0.6313 44.9837 3.08493L53.5904 20.5241C54.3187 21.9998 55.7266 23.0227 57.3551 23.2593L76.6004 26.0558C80.7015 26.6518 82.3391 31.6916 79.3715 34.5843L65.4455 48.1588C64.267 49.3075 63.7293 50.9625 64.0075 52.5845L67.295 71.752C67.9955 75.8365 63.7084 78.9514 60.0402 77.0229L42.8267 67.9732C41.3701 67.2074 39.6299 67.2074 38.1733 67.9732L20.9598 77.0229C17.2916 78.9513 13.0045 75.8365 13.705 71.752L16.9925 52.5845C17.2707 50.9625 16.733 49.3075 15.5545 48.1588L1.62851 34.5843C-1.33907 31.6916 0.298471 26.6518 4.39957 26.0558L23.6449 23.2593C25.2734 23.0227 26.6813 21.9998 27.4096 20.5241L36.0163 3.08493Z" fill="url(#paint0_linear_152_159)"/>
<defs>
<linearGradient id="paint0_linear_152_159" x1="41" y1="-0.999999" x2="64" y2="75.5" gradientUnits="userSpaceOnUse">
<stop stop-color="#795F3B"/>
<stop offset="0.255" stop-color="white"/>
<stop offset="0.515" stop-color="#AA8132"/>
<stop offset="0.71" stop-color="#FFD59B"/>
<stop offset="1" stop-color="#C27100"/>
</linearGradient>
</defs>
</svg>
