<svg width="82" height="23" viewBox="0 0 82 23" fill="none" xmlns="http://www.w3.org/2000/svg">
<path d="M78.7047 2.54395L81.1047 4.84795V5.08794L78.7047 7.39195H78.4647L76.0647 5.08794V4.84795L78.4647 2.54395H78.7047ZM78.6327 11.3279L81.1527 13.1519V13.3919C81.0247 13.5679 80.9047 13.7919 80.7927 14.0639C80.6967 14.3199 80.5927 14.5919 80.4807 14.8799L80.4087 15.0719C80.1367 15.7279 79.7847 16.4079 79.3527 17.1119C78.9207 17.8319 78.2567 18.6239 77.3607 19.4879L76.8807 19.1039C77.2487 18.5599 77.5127 18.0159 77.6727 17.4719C77.8327 16.9279 77.9127 16.4079 77.9127 15.9119C77.9127 15.4479 77.7687 15.0799 77.4807 14.8079C77.1927 14.5359 76.7207 14.3279 76.0647 14.1839V13.9439L78.3927 11.3279H78.6327Z" fill="#FFB800"/>
<path d="M56.8457 11.112C56.7977 10.696 56.6777 10.4 56.4857 10.224C56.3097 10.048 56.0617 9.944 55.7417 9.912V9.336C56.0617 9.304 56.3097 9.2 56.4857 9.024C56.6777 8.848 56.7977 8.552 56.8457 8.136C56.9577 7.08 57.2137 6.064 57.6137 5.088C58.0137 4.096 58.5577 3.224 59.2457 2.472C59.9497 1.72 60.7977 1.12 61.7897 0.672C62.7977 0.224 63.9497 0 65.2457 0C66.5257 0 67.6617 0.224 68.6537 0.672C69.6617 1.12 70.5097 1.72 71.1977 2.472C71.9017 3.224 72.4537 4.096 72.8537 5.088C73.2697 6.064 73.5337 7.08 73.6457 8.136C73.6937 8.552 73.8057 8.848 73.9817 9.024C74.1737 9.2 74.4297 9.304 74.7497 9.336V9.912C74.4297 9.944 74.1737 10.048 73.9817 10.224C73.8057 10.4 73.6937 10.696 73.6457 11.112C73.5337 12.184 73.2697 13.216 72.8537 14.208C72.4537 15.2 71.9017 16.072 71.1977 16.824C70.5097 17.576 69.6617 18.184 68.6537 18.648C67.6617 19.096 66.5257 19.32 65.2457 19.32C63.9657 19.32 62.8217 19.096 61.8137 18.648C60.8217 18.184 59.9737 17.576 59.2697 16.824C58.5817 16.072 58.0297 15.2 57.6137 14.208C57.2137 13.216 56.9577 12.184 56.8457 11.112ZM69.6857 9.648C69.6857 8.544 69.5817 7.544 69.3737 6.648C69.1817 5.736 68.8937 4.96 68.5097 4.32C68.1257 3.664 67.6537 3.16 67.0937 2.808C66.5497 2.456 65.9337 2.28 65.2457 2.28C64.5577 2.28 63.9337 2.456 63.3737 2.808C62.8297 3.16 62.3657 3.664 61.9817 4.32C61.5977 4.96 61.3017 5.736 61.0937 6.648C60.9017 7.544 60.8057 8.544 60.8057 9.648C60.8057 10.752 60.9017 11.76 61.0937 12.672C61.3017 13.568 61.5977 14.344 61.9817 15C62.3657 15.64 62.8297 16.144 63.3737 16.512C63.9337 16.864 64.5577 17.04 65.2457 17.04C65.9337 17.04 66.5497 16.864 67.0937 16.512C67.6537 16.144 68.1257 15.64 68.5097 15C68.8937 14.344 69.1817 13.568 69.3737 12.672C69.5817 11.76 69.6857 10.752 69.6857 9.648Z" fill="#8F00FF"/>
<path d="M50.4629 3.096C50.1109 2.856 49.6869 2.664 49.1909 2.52C48.6949 2.376 48.1029 2.304 47.4149 2.304C46.5349 2.304 45.7189 2.472 44.9669 2.808C44.2149 3.144 43.5589 3.624 42.9989 4.248C42.4389 4.872 41.9989 5.64 41.6789 6.552C41.3589 7.448 41.1989 8.464 41.1989 9.6C41.1989 10.752 41.3509 11.792 41.6549 12.72C41.9589 13.632 42.3829 14.416 42.9269 15.072C43.4869 15.728 44.1509 16.232 44.9189 16.584C45.6869 16.936 46.5349 17.112 47.4629 17.112C48.1029 17.112 48.6949 17.04 49.2389 16.896V10.416H47.3669C47.0149 10.416 46.7589 10.456 46.5989 10.536C46.4389 10.616 46.3269 10.816 46.2629 11.136H45.7829V8.16C46.0869 8.288 46.3749 8.376 46.6469 8.424C46.9189 8.456 47.1669 8.472 47.3909 8.472H54.1589V9.048C53.7589 9.064 53.4469 9.176 53.2229 9.384C53.0149 9.576 52.9109 9.976 52.9109 10.584V16.152C52.9109 16.536 53.0229 16.824 53.2469 17.016C53.4709 17.192 53.7909 17.232 54.2069 17.136L54.4229 17.664C53.2229 18.224 51.9749 18.624 50.6789 18.864C49.3829 19.12 47.9829 19.248 46.4789 19.248C45.0709 19.248 43.7829 19.008 42.6149 18.528C41.4629 18.048 40.4709 17.384 39.6389 16.536C38.8069 15.688 38.1669 14.68 37.7189 13.512C37.2709 12.344 37.0469 11.072 37.0469 9.696C37.0469 8.32 37.2709 7.04 37.7189 5.856C38.1829 4.672 38.8549 3.648 39.7349 2.784C40.6149 1.92 41.6869 1.24 42.9509 0.744C44.2149 0.248 45.6469 0 47.2469 0C48.2389 0 49.1669 0.112 50.0309 0.336C50.8949 0.56 51.7429 0.88 52.5749 1.296C52.7989 1.408 52.9989 1.488 53.1749 1.536C53.3509 1.568 53.5269 1.52 53.7029 1.392L54.0629 1.68L51.4229 4.968L51.0389 4.68C51.2469 4.392 51.2709 4.104 51.1109 3.816C50.9509 3.512 50.7349 3.272 50.4629 3.096Z" fill="#8F00FF"/>
<path d="M35.848 18.84H22V18.264C22.416 18.232 22.76 18.112 23.032 17.904C23.304 17.696 23.44 17.392 23.44 16.992V2.32798C23.44 1.92798 23.312 1.62398 23.056 1.41598C22.816 1.20798 22.504 1.08798 22.12 1.05598V0.47998H28.72V1.05598C28.256 1.08798 27.88 1.20798 27.592 1.41598C27.304 1.62398 27.16 1.92798 27.16 2.32798V16.368L33.016 16.296C33.736 16.28 34.272 16.088 34.624 15.72C34.976 15.352 35.2 14.832 35.296 14.16H35.848V18.84Z" fill="#8F00FF"/>
<path fill-rule="evenodd" clip-rule="evenodd" d="M19.9919 10.2236C19.5697 10.2609 19.2178 10.3602 18.9363 10.5217C18.6548 10.6832 18.428 10.882 18.256 11.118C18.0996 11.3416 17.9823 11.5963 17.9041 11.882C17.8416 12.1553 17.8103 12.441 17.8103 12.7391V14.7329C17.8103 16 17.3724 16.9752 16.4966 17.6584C15.6209 18.354 14.3385 18.8012 12.6495 19L12.4618 18.5714C12.8684 18.4224 13.1968 18.2422 13.447 18.0311C13.6973 17.8199 13.8849 17.5839 14.01 17.323C14.1508 17.0497 14.2368 16.7578 14.2681 16.4472C14.315 16.1242 14.3385 15.7888 14.3385 15.441V12.646C14.3385 12.4131 14.3591 12.1977 14.4003 12H7.22621L5.04356 17.4721C4.79333 18.0932 5.2625 18.4348 6.45106 18.4969V18.9441H0V18.4969C0.453529 18.4721 0.797586 18.3851 1.03217 18.2361C1.26675 18.0994 1.4466 17.8696 1.57171 17.5466L7.62398 2.43483C7.74909 2.09942 7.70218 1.8634 7.48323 1.72675C7.27993 1.57768 7.00624 1.49073 6.66219 1.46588V1.01868H12.5268V1.28014L12.6495 1C14.3385 1.19876 15.6209 1.63975 16.4966 2.32298C17.3724 3.00621 17.8103 3.98137 17.8103 5.24845V7.26087C17.8103 7.55901 17.8416 7.85093 17.9041 8.13665C17.9823 8.42236 18.0996 8.68323 18.256 8.91925C18.428 9.14286 18.6548 9.3354 18.9363 9.4969C19.2178 9.64596 19.5697 9.73913 19.9919 9.7764V10.2236ZM8.42282 9H14.903C14.5266 8.60635 14.3385 8.0577 14.3385 7.35404V4.55901C14.3385 4.21118 14.315 3.88199 14.2681 3.57143C14.2368 3.24845 14.1508 2.95652 14.01 2.69565C13.8849 2.42236 13.6973 2.18012 13.447 1.96894C13.2103 1.76913 12.9035 1.59713 12.5268 1.45292V1.46588C11.7761 1.52799 11.2835 1.84476 11.0489 2.41619L8.42282 9Z" fill="#8F00FF"/>
</svg>
